<svg width="47" height="47" viewBox="0 0 47 47" fill="none" xmlns="http://www.w3.org/2000/svg">
<g id="Group 163">
<path id="Home" d="M21.077 30.6046V28.1206C21.077 27.4887 21.6192 26.9753 22.291 26.9711H24.7518C25.4268 26.9711 25.9739 27.4857 25.9739 28.1206V28.1206V30.6123C25.9738 31.1488 26.429 31.5872 26.9993 31.5998H28.6398C30.2751 31.5998 31.6009 30.3529 31.6009 28.8149V28.8149V21.7484C31.5921 21.1433 31.2901 20.5752 30.7806 20.2055L25.1701 15.9549C24.1872 15.2147 22.79 15.2147 21.8071 15.9549L16.2211 20.2133C15.7098 20.5814 15.4072 21.1505 15.4009 21.7561V28.8149C15.4009 30.3529 16.7266 31.5998 18.362 31.5998H20.0025C20.5869 31.5998 21.0606 31.1542 21.0606 30.6046V30.6046" stroke="#B0BCC2" stroke-width="1.5" stroke-linecap="round" stroke-linejoin="round"/>
<rect id="Rectangle 41" opacity="0.5" x="1" y="1" width="45" height="45" rx="22.5" stroke="#B0BCC2" stroke-linecap="round" stroke-linejoin="round"/>
</g>
</svg>
