<svg width="28" height="34" viewBox="0 0 28 34" fill="none" xmlns="http://www.w3.org/2000/svg">
<path fill-rule="evenodd" clip-rule="evenodd" d="M0 14.2243C0 6.63452 6.3311 0.5 13.9892 0.5C21.6689 0.5 28 6.63452 28 14.2243C28 18.0489 26.6115 21.5996 24.3262 24.6091C21.8051 27.9288 18.6977 30.8212 15.2 33.0915C14.3994 33.6162 13.677 33.6558 12.7984 33.0915C9.28074 30.8212 6.17332 27.9288 3.67376 24.6091C1.3868 21.5996 0 18.0489 0 14.2243ZM9.37891 14.6511C9.37891 17.1937 11.45 19.1934 13.9894 19.1934C16.5305 19.1934 18.6214 17.1937 18.6214 14.6511C18.6214 12.1283 16.5305 10.0312 13.9894 10.0312C11.45 10.0312 9.37891 12.1283 9.37891 14.6511Z" fill="#B0BCC2"/>
</svg>
