<svg width="26" height="18" viewBox="0 0 26 18" fill="none" xmlns="http://www.w3.org/2000/svg">
<g id="Vector">
<path d="M0.5 4.32C0.5 1.93413 2.41878 0 4.78571 0H21.2143C23.5812 0 25.5 1.93413 25.5 4.32V13.68C25.5 16.0659 23.5812 18 21.2143 18H4.78571C2.41878 18 0.5 16.0659 0.5 13.68V4.32Z" fill="#B0BCC2"/>
<path d="M20.5 6.38325C20.5 6.68944 20.3241 7.00538 19.9648 7.00538H18.4957V8.89773H19.7332C20.1172 8.89773 20.3091 9.20404 20.3091 9.51236C20.3091 9.82717 20.1172 10.1442 19.7332 10.1442H18.4957V11.5367C18.4957 11.989 18.2393 12.24 17.8961 12.24C17.5508 12.24 17.2956 11.989 17.2956 11.5367V6.46329C17.2956 6.09429 17.5186 5.76 17.9186 5.76H19.9648C20.3166 5.76 20.5 6.06619 20.5 6.38325Z" fill="white"/>
<path fill-rule="evenodd" clip-rule="evenodd" d="M13.0488 5.76H11.5516C11.1452 5.76 10.8567 6.04134 10.8567 6.45893V11.5411C10.8567 12.0593 11.2717 12.2216 11.5687 12.2216H13.1399C14.9994 12.2216 16.2273 10.9871 16.2273 9.08167C16.2263 7.06706 15.0703 5.76 13.0488 5.76ZM12.208 10.9688H13.1207C14.2852 10.9688 14.8172 10.1075 14.8172 9.01898C14.8172 7.85589 14.2757 7.01299 13.0306 7.01299H12.208V10.9688Z" fill="white"/>
<path fill-rule="evenodd" clip-rule="evenodd" d="M7.63628 5.76H6.15313C5.7338 5.76 5.5 6.0391 5.5 6.46329V11.5367C5.5 11.989 5.76809 12.24 6.12839 12.24C6.48869 12.24 6.75678 11.989 6.75678 11.5367V10.0554H7.68654C8.83402 10.0554 9.78099 9.23527 9.78099 7.91634C9.7811 6.62563 8.86742 5.76 7.63628 5.76ZM6.75689 8.86538H7.61164C8.13928 8.86538 8.47383 8.44991 8.47494 7.90884C8.47494 7.36676 8.13928 6.9513 7.61164 6.9513H6.75689V8.86538Z" fill="white"/>
</g>
</svg>
