<svg width="34" height="34" viewBox="0 0 34 34" fill="none" xmlns="http://www.w3.org/2000/svg">
<path d="M22.5482 3H9.70825C7.97854 3 6.57074 4.38588 6.57074 6.08653V17.5H6.2643C5.56618 17.5 5 18.0564 5 18.7438V26.2867C5 26.974 5.56612 27.5304 6.2643 27.5304H6.57074V28.9135C6.57074 30.616 7.97854 32 9.70825 32H26.8634C28.592 32 30 30.6159 30 28.9135V10.305L22.5482 3ZM26.8634 30.1098H9.70825C9.0385 30.1098 8.49311 29.5732 8.49311 28.9135V27.5304H24.553C25.2513 27.5304 25.8174 26.974 25.8174 26.2867V18.7438C25.8174 18.0564 25.2513 17.5 24.553 17.5H8.49311V6.08653C8.49311 5.42862 9.03856 4.8921 9.70825 4.8921L21.8294 4.88067V8.92464C21.8294 10.1058 22.8036 11.0652 24.0053 11.0652L28.0322 11.0538L28.0775 28.9134C28.0775 29.5732 27.5331 30.1098 26.8634 30.1098Z" fill="#B0BCC2"/>
<path d="M26.8634 30.1098H9.70825C9.0385 30.1098 8.49311 29.5732 8.49311 28.9135V27.5304H24.553C25.2513 27.5304 25.8174 26.974 25.8174 26.2867V18.7438C25.8174 18.0564 25.2513 17.5 24.553 17.5H8.49311V6.08653C8.49311 5.42862 9.03856 4.8921 9.70825 4.8921L21.8294 4.88067V8.92464C21.8294 10.1058 22.8036 11.0652 24.0053 11.0652L28.0322 11.0538L28.0775 28.9134C28.0775 29.5732 27.5331 30.1098 26.8634 30.1098Z" fill="#B0BCC2"/>
<path d="M12.0032 26H11V20H13.533C14.0457 20 14.447 20.1657 14.7368 20.4971C15.0321 20.8286 15.1798 21.2771 15.1798 21.8429C15.1798 22.4086 15.0321 22.8571 14.7368 23.1886C14.447 23.52 14.0457 23.6857 13.533 23.6857H12.0032V26ZM12.0032 20.9V22.7857H13.3574C13.5971 22.7857 13.7893 22.7029 13.9342 22.5371C14.0847 22.3714 14.1599 22.14 14.1599 21.8429C14.1599 21.5457 14.0847 21.3143 13.9342 21.1486C13.7893 20.9829 13.5971 20.9 13.3574 20.9H12.0032Z" fill="#F9F9F9"/>
<path d="M17.3932 20.9V25.1H18.4799C18.8812 25.1 19.1961 24.9943 19.4246 24.7829C19.6586 24.5714 19.7757 24.2943 19.7757 23.9514V22.0486C19.7757 21.7057 19.6586 21.4286 19.4246 21.2171C19.1961 21.0057 18.8812 20.9 18.4799 20.9H17.3932ZM18.4799 26H16.39V20H18.4799C19.1933 20 19.7534 20.1829 20.1602 20.5486C20.5726 20.9143 20.7788 21.4229 20.7788 22.0743V23.9257C20.7788 24.5771 20.5726 25.0857 20.1602 25.4514C19.7534 25.8171 19.1933 26 18.4799 26Z" fill="#F9F9F9"/>
<path d="M23.1995 26H22.1964V20H26V20.9H23.1995V22.6229H25.5987V23.48H23.1995V26Z" fill="#F9F9F9"/>
</svg>
