<svg width="50" height="50" viewBox="0 0 50 50" fill="none" xmlns="http://www.w3.org/2000/svg">
<path fill-rule="evenodd" clip-rule="evenodd" d="M17 22.9579C17.015 18.5479 20.6089 14.9851 25.0272 15C29.4454 15.015 33.015 18.6022 33 23.0121V23.1025C32.9456 25.9692 31.342 28.6188 29.376 30.6896C28.2516 31.855 26.996 32.8867 25.6342 33.7642C25.27 34.0786 24.7299 34.0786 24.3658 33.7642C22.3356 32.4453 20.5539 30.7801 19.1019 28.8448C17.8078 27.1572 17.0731 25.1089 17 22.985V22.9579Z" stroke="#9A9AB1" stroke-width="1.5" stroke-linecap="round" stroke-linejoin="round"/>
<path d="M27.4 22.9167C27.4 24.2283 26.3255 25.2917 25 25.2917C23.6745 25.2917 22.6 24.2283 22.6 22.9167C22.6 21.605 23.6745 20.5417 25 20.5417C26.3255 20.5417 27.4 21.605 27.4 22.9167Z" stroke="#9A9AB1" stroke-width="1.5" stroke-linecap="round" stroke-linejoin="round"/>
<rect x="0.5" y="0.5" width="49" height="49" rx="9.5" stroke="#B0BCC2" stroke-opacity="0.3"/>
</svg>
