<svg width="50" height="50" viewBox="0 0 50 50" fill="none" xmlns="http://www.w3.org/2000/svg">
<rect x="0.5" y="0.5" width="49" height="49" rx="9.5" stroke="#B0BCC2" stroke-opacity="0.3"/>
<path d="M19.7794 18.39L19.7794 18.39C19.8968 18.0424 20.1205 17.7405 20.4188 17.527C20.7169 17.3137 21.0743 17.1993 21.4408 17.2M19.7794 18.39L21.44 17.95M19.7794 18.39L19.7781 18.3941L18.6781 21.7141C18.6023 21.9428 18.641 22.1939 18.782 22.3891C18.923 22.5844 19.1492 22.7 19.39 22.7H30.61C30.849 22.7 31.0738 22.5861 31.215 22.3932C31.3563 22.2004 31.3972 21.9518 31.3251 21.7239L30.2751 18.4039L30.2752 18.4038L30.2709 18.391C30.1491 18.0288 29.9122 17.7164 29.5962 17.5015C29.2863 17.2908 28.9172 17.1853 28.5432 17.2M19.7794 18.39L28.56 17.95M21.4408 17.2C21.4412 17.2 21.4416 17.2 21.4419 17.2L21.44 17.95M21.4408 17.2H21.44V17.95M21.4408 17.2H28.5432M21.44 17.95H28.56M28.5432 17.2C28.5357 17.2003 28.5283 17.2007 28.5209 17.201L28.56 17.95M28.5432 17.2H28.56V17.95M19.8752 26.7353C19.8872 26.7309 19.899 26.7263 19.9107 26.7214C19.9563 26.7022 20.0064 26.697 20.0549 26.7064C20.0998 26.715 20.1414 26.7358 20.1752 26.7663C20.2224 26.8199 20.2491 26.8888 20.2501 26.9605L20.25 26.9605L20.2502 26.9693C20.2506 26.9834 20.2477 26.9973 20.2417 27.0101C20.2369 27.0202 20.2323 27.0305 20.228 27.0408C20.215 27.0719 20.1982 27.1012 20.1779 27.1279C20.1528 27.147 20.1254 27.163 20.0964 27.1756C20.0523 27.1922 20.0044 27.196 19.9582 27.1865C19.9102 27.1767 19.8662 27.153 19.8316 27.1184C19.797 27.0838 19.7733 27.0398 19.7635 26.9919C19.7537 26.9439 19.7581 26.8942 19.7763 26.8487C19.7794 26.841 19.7824 26.8331 19.7852 26.8253C19.7927 26.8046 19.8047 26.7858 19.8202 26.7702C19.8358 26.7547 19.8546 26.7427 19.8752 26.7353ZM28.56 16H21.44H28.56ZM28.56 16.75L28.5629 16.75C29.0297 16.7482 29.4854 16.8916 29.8671 17.1604C30.2473 17.4282 30.5352 17.8072 30.6912 18.2453L32.0201 22.1832C32.0679 22.471 32.2805 22.7098 32.57 22.7856C33.0498 22.9112 33.4746 23.1918 33.7784 23.5838C34.0819 23.9754 34.2477 24.4563 34.25 24.9517V28.9492C34.2484 29.4129 34.1036 29.8649 33.8353 30.2432C33.5668 30.6219 33.1877 30.9082 32.75 31.0629C32.4503 31.1689 32.25 31.4522 32.25 31.77V32.95C32.25 33.0163 32.2237 33.0799 32.1768 33.1268C32.1299 33.1737 32.0663 33.2 32 33.2C31.9337 33.2 31.8701 33.1737 31.8232 33.1268C31.7763 33.0799 31.75 33.0163 31.75 32.95V31.95C31.75 31.5358 31.4142 31.2 31 31.2H19C18.5858 31.2 18.25 31.5358 18.25 31.95V32.95C18.25 33.0163 18.2237 33.0799 18.1768 33.1268C18.1299 33.1737 18.0663 33.2 18 33.2C17.9337 33.2 17.8701 33.1737 17.8232 33.1268C17.7763 33.0799 17.75 33.0163 17.75 32.95V31.77C17.75 31.4522 17.5497 31.1689 17.25 31.0629C16.8123 30.9082 16.4332 30.6219 16.1647 30.2432C15.8963 29.8648 15.7515 29.4128 15.75 28.9489V24.9517C15.7523 24.4562 15.9181 23.9754 16.2216 23.5838C16.5254 23.1918 16.9502 22.9112 17.43 22.7856C17.6748 22.7214 17.8708 22.5382 17.9512 22.2982L19.309 18.2446C19.4651 17.8068 19.7529 17.428 20.1329 17.1604C20.5146 16.8916 20.9703 16.7482 21.4371 16.75V16.75H21.44L28.56 16.75ZM29.8752 26.7353C29.8872 26.7309 29.899 26.7263 29.9107 26.7214C29.9563 26.7022 30.0064 26.697 30.0549 26.7064C30.0998 26.715 30.1414 26.7358 30.1752 26.7663C30.2224 26.8199 30.2491 26.8888 30.2501 26.9605L30.25 26.9605L30.2502 26.9693C30.2506 26.9834 30.2477 26.9973 30.2417 27.0101C30.2317 27.0312 30.2227 27.0528 30.2148 27.0748C30.2073 27.0955 30.1953 27.1143 30.1798 27.1298C30.1642 27.1454 30.1454 27.1573 30.1248 27.1648C30.1169 27.1676 30.1091 27.1706 30.1013 27.1737C30.0559 27.1919 30.0061 27.1964 29.9582 27.1865C29.9102 27.1767 29.8662 27.153 29.8316 27.1184C29.797 27.0838 29.7733 27.0398 29.7635 26.9919C29.7537 26.9439 29.7581 26.8942 29.7763 26.8487C29.7794 26.841 29.7824 26.8331 29.7852 26.8253C29.7927 26.8046 29.8047 26.7858 29.8202 26.7702C29.8358 26.7547 29.8546 26.7427 29.8752 26.7353ZM30.92 27.33C30.976 27.2113 31.0034 27.0812 31 26.95L30.92 27.33ZM33.2374 30.1875C33.5656 29.8593 33.75 29.4142 33.75 28.95V24.95C33.75 24.4859 33.5656 24.0408 33.2374 23.7126C32.9093 23.3844 32.4641 23.2 32 23.2H18C17.5359 23.2 17.0908 23.3844 16.7626 23.7126C16.4344 24.0408 16.25 24.4859 16.25 24.95V28.95C16.25 29.4142 16.4344 29.8593 16.7626 30.1875C17.0908 30.5156 17.5359 30.7 18 30.7H32C32.4641 30.7 32.9092 30.5156 33.2374 30.1875ZM24 26.7H26C26.0663 26.7 26.1299 26.7264 26.1768 26.7732C26.2237 26.8201 26.25 26.8837 26.25 26.95C26.25 27.0163 26.2237 27.0799 26.1768 27.1268C26.1299 27.1737 26.0663 27.2 26 27.2H24C23.9337 27.2 23.8701 27.1737 23.8232 27.1268C23.7763 27.0799 23.75 27.0163 23.75 26.95C23.75 26.8837 23.7763 26.8201 23.8232 26.7732C23.8701 26.7264 23.9337 26.7 24 26.7Z" stroke="#9A9AB1" stroke-width="1.5" stroke-linecap="round" stroke-linejoin="round"/>
</svg>
