<svg width="23" height="23" viewBox="0 0 23 23" fill="none" xmlns="http://www.w3.org/2000/svg">
<path id="Vector" d="M20.5357 16.5452V6.45482C21.0961 6.31111 21.6085 6.02168 22.0209 5.61591C22.4332 5.21013 22.7309 4.70247 22.8837 4.14445C23.0364 3.58644 23.0388 2.99794 22.8906 2.43871C22.7423 1.87948 22.4488 1.36943 22.0397 0.960336C21.6306 0.551244 21.1205 0.25768 20.5613 0.109448C20.0021 -0.0387844 19.4136 -0.0364067 18.8555 0.116339C18.2975 0.269086 17.7899 0.566761 17.3841 0.979145C16.9783 1.39153 16.6889 1.90394 16.5452 2.46435H6.45482C6.31111 1.90394 6.02168 1.39153 5.61591 0.979145C5.21013 0.566761 4.70247 0.269086 4.14445 0.116339C3.58644 -0.0364067 2.99794 -0.0387844 2.43871 0.109448C1.87948 0.25768 1.36943 0.551244 0.960336 0.960336C0.551244 1.36943 0.25768 1.87948 0.109448 2.43871C-0.0387844 2.99794 -0.0364067 3.58644 0.116339 4.14445C0.269086 4.70247 0.566761 5.21013 0.979145 5.61591C1.39153 6.02168 1.90394 6.31111 2.46435 6.45482V16.5452C1.90394 16.6889 1.39153 16.9783 0.979145 17.3841C0.566761 17.7899 0.269086 18.2975 0.116339 18.8555C-0.0364067 19.4136 -0.0387844 20.0021 0.109448 20.5613C0.25768 21.1205 0.551244 21.6306 0.960336 22.0397C1.36943 22.4488 1.87948 22.7423 2.43871 22.8906C2.99794 23.0388 3.58644 23.0364 4.14445 22.8837C4.70247 22.7309 5.21013 22.4332 5.61591 22.0209C6.02168 21.6085 6.31111 21.0961 6.45482 20.5357H16.5452C16.6889 21.0961 16.9783 21.6085 17.3841 22.0209C17.7899 22.4332 18.2975 22.7309 18.8555 22.8837C19.4136 23.0364 20.0021 23.0388 20.5613 22.8906C21.1205 22.7423 21.6306 22.4488 22.0397 22.0397C22.4488 21.6306 22.7423 21.1205 22.8906 20.5613C23.0388 20.0021 23.0364 19.4136 22.8837 18.8555C22.7309 18.2975 22.4332 17.7899 22.0209 17.3841C21.6085 16.9783 21.0961 16.6889 20.5357 16.5452ZM19.7142 1.64292C20.0392 1.64292 20.3568 1.73928 20.6269 1.91979C20.8971 2.10031 21.1077 2.35689 21.232 2.65708C21.3564 2.95727 21.3889 3.28759 21.3255 3.60627C21.2621 3.92495 21.1057 4.21768 20.8759 4.44744C20.6461 4.67719 20.3534 4.83366 20.0347 4.89705C19.7161 4.96044 19.3857 4.92791 19.0855 4.80356C18.7853 4.67922 18.5288 4.46865 18.3483 4.19849C18.1677 3.92832 18.0714 3.61069 18.0714 3.28577C18.0719 2.85021 18.2451 2.43264 18.5531 2.12466C18.8611 1.81667 19.2787 1.64342 19.7142 1.64292ZM1.64292 3.28577C1.64292 2.96085 1.73928 2.64322 1.91979 2.37305C2.10031 2.10289 2.35689 1.89232 2.65708 1.76798C2.95727 1.64364 3.28759 1.6111 3.60627 1.67449C3.92495 1.73788 4.21768 1.89435 4.44744 2.1241C4.67719 2.35386 4.83366 2.64659 4.89705 2.96527C4.96044 3.28395 4.92791 3.61427 4.80356 3.91446C4.67922 4.21465 4.46865 4.47123 4.19849 4.65175C3.92832 4.83226 3.61069 4.92862 3.28577 4.92862C2.85019 4.92818 2.43258 4.75496 2.12458 4.44696C1.81658 4.13896 1.64336 3.72135 1.64292 3.28577ZM3.28577 21.3571C2.96085 21.3571 2.64322 21.2607 2.37305 21.0802C2.10289 20.8997 1.89232 20.6431 1.76798 20.3429C1.64364 20.0427 1.6111 19.7124 1.67449 19.3937C1.73788 19.075 1.89435 18.7823 2.1241 18.5526C2.35386 18.3228 2.64659 18.1663 2.96527 18.1029C3.28395 18.0396 3.61427 18.0721 3.91446 18.1964C4.21465 18.3208 4.47123 18.5313 4.65175 18.8015C4.83226 19.0717 4.92862 19.3893 4.92862 19.7142C4.92812 20.1498 4.75487 20.5674 4.44689 20.8753C4.1389 21.1833 3.72133 21.3566 3.28577 21.3571ZM16.5452 18.8928H6.45482C6.3077 18.328 6.01259 17.8128 5.59992 17.4001C5.18725 16.9874 4.67195 16.6923 4.10719 16.5452V6.45482C4.67192 6.30763 5.18717 6.01249 5.59983 5.59983C6.01249 5.18717 6.30763 4.67192 6.45482 4.10719H16.5452C16.6923 4.67195 16.9874 5.18725 17.4001 5.59992C17.8128 6.01259 18.328 6.3077 18.8928 6.45482V16.5452C18.328 16.6922 17.8127 16.9873 17.4 17.4C16.9873 17.8127 16.6922 18.328 16.5452 18.8928ZM19.7142 21.3571C19.3893 21.3571 19.0717 21.2607 18.8015 21.0802C18.5313 20.8997 18.3208 20.6431 18.1964 20.3429C18.0721 20.0427 18.0396 19.7124 18.1029 19.3937C18.1663 19.075 18.3228 18.7823 18.5526 18.5526C18.7823 18.3228 19.075 18.1663 19.3937 18.1029C19.7124 18.0396 20.0427 18.0721 20.3429 18.1964C20.6431 18.3208 20.8997 18.5313 21.0802 18.8015C21.2607 19.0717 21.3571 19.3893 21.3571 19.7142C21.3565 20.1498 21.1832 20.5673 20.8752 20.8752C20.5673 21.1832 20.1498 21.3565 19.7142 21.3571Z" fill="#A5B9C7"/>
</svg>
