<svg width="40" height="40" viewBox="0 0 40 40" fill="none" xmlns="http://www.w3.org/2000/svg">
<g id="Instagram">
<g id="Icon">
<path id="path28" fill-rule="evenodd" clip-rule="evenodd" d="M9.09529 39.9803C8.20324 39.9486 7.05353 39.8788 6.53097 39.7734C5.73329 39.6123 4.97999 39.3681 4.35354 39.0488C3.6175 38.6737 2.95782 38.1951 2.38821 37.6263C1.81729 37.0565 1.33678 36.3962 0.960167 35.6591C0.641767 35.036 0.397676 34.2873 0.235908 33.4941C0.128313 32.9663 0.0571543 31.808 0.0248966 30.9102C0.0118154 30.5432 0.00510357 30.0683 0.00510357 29.8493L0.00195312 10.1538C0.00195312 9.93569 0.00859645 9.46066 0.0216091 9.09329C0.053319 8.2013 0.123108 7.05159 0.228648 6.52903C0.389663 5.73142 0.633959 4.97805 0.953181 4.35159C1.32836 3.61548 1.80688 2.95594 2.37561 2.38626C2.94542 1.81541 3.60578 1.3349 4.34285 0.958215C4.96602 0.639883 5.71473 0.395724 6.50782 0.233955C7.03566 0.12636 8.19399 0.0552013 9.0918 0.023012C9.45862 0.00986227 9.93359 0.00315045 10.1526 0.00315045L29.8481 0C30.0663 0 30.5413 0.00657485 30.9085 0.0196561C31.8006 0.0514345 32.9504 0.121155 33.4729 0.226695C34.2705 0.387779 35.0239 0.632076 35.6503 0.95123C36.3863 1.32641 37.046 1.805 37.6156 2.37366C38.1865 2.94355 38.667 3.60377 39.0437 4.34091C39.362 4.96408 39.6062 5.71272 39.7679 6.50588C39.8756 7.03372 39.9467 8.19212 39.9789 9.08986C39.9921 9.45675 39.9987 9.93165 39.9987 10.1507L40.002 29.8462C40.002 30.0644 39.9953 30.5394 39.9822 30.9067C39.9505 31.7987 39.8807 32.9484 39.7752 33.471C39.6142 34.2687 39.3699 35.0219 39.0507 35.6484C38.6755 36.3845 38.1969 37.0441 37.6283 37.6138C37.0584 38.1846 36.3981 38.6652 35.661 39.0418C35.0378 39.3602 34.2892 39.6043 33.496 39.766C32.9682 39.8736 31.8098 39.9448 30.9121 39.977C30.5451 39.9902 30.0703 39.9968 29.8512 39.9968L10.1558 40C9.93756 40 9.46253 39.9934 9.09529 39.9803Z" fill="url(#paint0_radial_902_349)"/>
<mask id="mask0_902_349" style="mask-type:luminance" maskUnits="userSpaceOnUse" x="0" y="0" width="41" height="40">
<path id="path28_2" fill-rule="evenodd" clip-rule="evenodd" d="M9.09529 39.9803C8.20324 39.9486 7.05353 39.8788 6.53097 39.7734C5.73329 39.6123 4.97999 39.3681 4.35354 39.0488C3.6175 38.6737 2.95782 38.1951 2.38821 37.6263C1.81729 37.0565 1.33678 36.3962 0.960167 35.6591C0.641767 35.036 0.397676 34.2873 0.235908 33.4941C0.128313 32.9663 0.0571543 31.808 0.0248966 30.9102C0.0118154 30.5432 0.00510357 30.0683 0.00510357 29.8493L0.00195312 10.1538C0.00195312 9.93569 0.00859645 9.46066 0.0216091 9.09329C0.053319 8.2013 0.123108 7.05159 0.228648 6.52903C0.389663 5.73142 0.633959 4.97805 0.953181 4.35159C1.32836 3.61548 1.80688 2.95594 2.37561 2.38626C2.94542 1.81541 3.60578 1.3349 4.34285 0.958215C4.96602 0.639883 5.71473 0.395724 6.50782 0.233955C7.03566 0.12636 8.19399 0.0552013 9.0918 0.023012C9.45862 0.00986227 9.93359 0.00315045 10.1526 0.00315045L29.8481 0C30.0663 0 30.5413 0.00657485 30.9085 0.0196561C31.8006 0.0514345 32.9504 0.121155 33.4729 0.226695C34.2705 0.387779 35.0239 0.632076 35.6503 0.95123C36.3863 1.32641 37.046 1.805 37.6156 2.37366C38.1865 2.94355 38.667 3.60377 39.0437 4.34091C39.362 4.96408 39.6062 5.71272 39.7679 6.50588C39.8756 7.03372 39.9467 8.19212 39.9789 9.08986C39.9921 9.45675 39.9987 9.93165 39.9987 10.1507L40.002 29.8462C40.002 30.0644 39.9953 30.5394 39.9822 30.9067C39.9505 31.7987 39.8807 32.9484 39.7752 33.471C39.6142 34.2687 39.3699 35.0219 39.0507 35.6484C38.6755 36.3845 38.1969 37.0441 37.6283 37.6138C37.0584 38.1846 36.3981 38.6652 35.661 39.0418C35.0378 39.3602 34.2892 39.6043 33.496 39.766C32.9682 39.8736 31.8098 39.9448 30.9121 39.977C30.5451 39.9902 30.0703 39.9968 29.8512 39.9968L10.1558 40C9.93756 40 9.46253 39.9934 9.09529 39.9803Z" fill="white"/>
</mask>
<g mask="url(#mask0_902_349)">
<path id="Shape" fill-rule="evenodd" clip-rule="evenodd" d="M20.0825 5.14551C16.0641 5.14551 15.5598 5.16318 13.9816 5.2354C12.4064 5.30794 11.3312 5.55871 10.3904 5.92666C9.41727 6.3067 8.59177 6.81507 7.76936 7.6424C6.94633 8.46943 6.44079 9.29956 6.06164 10.2779C5.69482 11.2242 5.44514 12.3058 5.37424 13.8891C5.30365 15.4762 5.28516 15.9837 5.28516 20.0246C5.28516 24.0655 5.30303 24.5711 5.37455 26.1582C5.44699 27.7422 5.69636 28.8234 6.06195 29.7695C6.44018 30.7481 6.94571 31.5782 7.76843 32.4052C8.59054 33.2329 9.41604 33.7425 10.3886 34.1225C11.33 34.4905 12.4055 34.7412 13.9803 34.8138C15.5586 34.886 16.0626 34.9037 20.0806 34.9037C24.0993 34.9037 24.6021 34.886 26.1803 34.8138C27.7555 34.7412 28.8319 34.4905 29.7733 34.1225C30.7461 33.7425 31.5704 33.2329 32.3925 32.4052C33.2156 31.5782 33.7211 30.7481 34.1002 29.7698C34.464 28.8234 34.7137 27.7419 34.7876 26.1585C34.8585 24.5714 34.877 24.0655 34.877 20.0246C34.877 15.9837 34.8585 15.4766 34.7876 13.8895C34.7137 12.3054 34.464 11.2242 34.1002 10.2782C33.7211 9.29956 33.2156 8.46943 32.3925 7.6424C31.5695 6.81476 30.7465 6.30639 29.7724 5.92666C28.8291 5.55871 27.7533 5.30794 26.1782 5.2354C24.5999 5.16318 24.0975 5.14551 20.0779 5.14551H20.0825ZM19.5875 7.82682H19.5877L20.0809 7.82696C24.0314 7.82696 24.4997 7.84122 26.0597 7.91252C27.5024 7.97885 28.2853 8.22126 28.8069 8.42492C29.4974 8.6946 29.9896 9.01698 30.5072 9.53775C31.0251 10.0585 31.3456 10.5545 31.6144 11.2488C31.817 11.7727 32.0583 12.5601 32.124 14.0108C32.1949 15.5793 32.2103 16.0504 32.2103 20.0213C32.2103 23.9922 32.1949 24.4633 32.124 26.0318C32.058 27.4825 31.817 28.2699 31.6144 28.7938C31.3463 29.4881 31.0251 29.9825 30.5072 30.503C29.9893 31.0238 29.4977 31.3462 28.8069 31.6158C28.2859 31.8204 27.5024 32.0622 26.0597 32.1285C24.5 32.1998 24.0314 32.2153 20.0809 32.2153C16.13 32.2153 15.6618 32.1998 14.102 32.1285C12.6594 32.0616 11.8765 31.8192 11.3546 31.6155C10.6641 31.3458 10.1709 31.0235 9.65303 30.5027C9.13517 29.9819 8.81459 29.4872 8.54579 28.7925C8.34327 28.2687 8.10191 27.4813 8.03625 26.0306C7.96535 24.4621 7.95117 23.9909 7.95117 20.0176C7.95117 16.0442 7.96535 15.5756 8.03625 14.0071C8.10222 12.5563 8.34327 11.769 8.54579 11.2445C8.81397 10.5501 9.13517 10.0542 9.65303 9.53341C10.1709 9.01264 10.6641 8.69026 11.3546 8.41996C11.8761 8.21537 12.6594 7.97358 14.102 7.90694C15.467 7.84494 15.9959 7.82634 18.7536 7.82324V7.82696C19.0111 7.82656 19.2882 7.82668 19.5871 7.82682H19.5873H19.5875ZM26.2051 12.0819C26.2051 11.0958 27.0004 10.297 27.9806 10.297V10.2964C28.9608 10.2964 29.7561 11.0961 29.7561 12.0819C29.7561 13.0676 28.9608 13.8674 27.9806 13.8674C27.0004 13.8674 26.2051 13.0676 26.2051 12.0819ZM20.0805 12.3838C15.8844 12.384 12.4824 15.8052 12.4824 20.0248C12.4824 24.2446 15.8846 27.6643 20.0808 27.6643C24.2771 27.6643 27.678 24.2446 27.678 20.0248C27.678 15.805 24.2768 12.3838 20.0805 12.3838ZM25.0145 20.0246C25.0145 17.2853 22.8061 15.0649 20.0824 15.0649C17.3584 15.0649 15.1504 17.2853 15.1504 20.0246C15.1504 22.7636 17.3584 24.9843 20.0824 24.9843C22.8061 24.9843 25.0145 22.7636 25.0145 20.0246Z" fill="white"/>
</g>
</g>
</g>
<defs>
<radialGradient id="paint0_radial_902_349" cx="0" cy="0" r="1" gradientUnits="userSpaceOnUse" gradientTransform="translate(10.627 43.0808) rotate(-90) scale(39.643)">
<stop stop-color="#FFDD55"/>
<stop offset="0.1" stop-color="#FFDD55"/>
<stop offset="0.5" stop-color="#FF543E"/>
<stop offset="1" stop-color="#C837AB"/>
</radialGradient>
</defs>
</svg>
