<svg width="40" height="41" viewBox="0 0 40 41" fill="none" xmlns="http://www.w3.org/2000/svg">
<g id="Telegram">
<g id="Artboard">
<path id="Oval" d="M20 40.5C31.0457 40.5 40 31.5457 40 20.5C40 9.45431 31.0457 0.5 20 0.5C8.95431 0.5 0 9.45431 0 20.5C0 31.5457 8.95431 40.5 20 40.5Z" fill="url(#paint0_linear_244_2986)"/>
<path id="Path 3" fill-rule="evenodd" clip-rule="evenodd" d="M9.0532 20.2892C14.8836 17.7489 18.7715 16.0743 20.7168 15.2652C26.271 12.955 27.4251 12.5537 28.1773 12.5404C28.3428 12.5375 28.7127 12.5785 28.9523 12.773C29.1547 12.9371 29.2103 13.1589 29.237 13.3146C29.2636 13.4702 29.2968 13.8248 29.2704 14.1019C28.9694 17.2644 27.6671 24.9389 27.0045 28.4809C26.7241 29.9796 26.1721 30.4822 25.6377 30.5313C24.4762 30.6382 23.5943 29.7638 22.4694 29.0264C20.7091 27.8725 19.7147 27.1542 18.0061 26.0283C16.0314 24.727 17.3115 24.0118 18.4368 22.843C18.7313 22.5371 23.8487 17.8825 23.9477 17.4603C23.9601 17.4075 23.9716 17.2106 23.8547 17.1067C23.7377 17.0028 23.5651 17.0383 23.4406 17.0666C23.264 17.1066 20.452 18.9653 15.0044 22.6425C14.2063 23.1906 13.4833 23.4577 12.8355 23.4437C12.1214 23.4282 10.7478 23.0399 9.7266 22.708C8.4741 22.3008 7.47864 22.0856 7.56532 21.3941C7.61047 21.034 8.10643 20.6657 9.0532 20.2892Z" fill="white"/>
</g>
</g>
<defs>
<linearGradient id="paint0_linear_244_2986" x1="20" y1="0.5" x2="20" y2="40.2033" gradientUnits="userSpaceOnUse">
<stop stop-color="#2AABEE"/>
<stop offset="1" stop-color="#229ED9"/>
</linearGradient>
</defs>
</svg>
