<svg width="40" height="41" viewBox="0 0 40 41" fill="none" xmlns="http://www.w3.org/2000/svg">
<g id="WhatsApp">
<path id="path42" d="M9.09334 0.519653C8.20129 0.551365 7.05158 0.621155 6.52902 0.726627C5.73134 0.887711 4.97804 1.13194 4.35158 1.45123C3.61554 1.82634 2.95587 2.30493 2.38625 2.87366C1.81534 3.44348 1.33483 4.10377 0.958214 4.8409C0.639814 5.46401 0.395723 6.21272 0.233955 7.00588C0.12636 7.53372 0.0552012 8.69198 0.0229434 9.58979C0.00986225 9.95675 0.00315044 10.4317 0.00315044 10.6507L0 30.3462C0 30.5643 0.00664332 31.0393 0.019656 31.4067C0.0513659 32.2987 0.121155 33.4484 0.226695 33.971C0.38771 34.7686 0.632006 35.522 0.951228 36.1484C1.3264 36.8845 1.80493 37.5441 2.37365 38.1137C2.94347 38.6846 3.60383 39.1651 4.3409 39.5418C4.96407 39.8601 5.71278 40.1043 6.50587 40.266C7.0337 40.3736 8.19204 40.4448 9.08985 40.477C9.45667 40.4901 9.93163 40.4968 10.1507 40.4968L29.8461 40.5C30.0643 40.5 30.5394 40.4934 30.9066 40.4803C31.7986 40.4486 32.9484 40.3788 33.4709 40.2733C34.2686 40.1122 35.022 39.8679 35.6483 39.5488C36.3844 39.1736 37.0441 38.695 37.6137 38.1263C38.1845 37.5565 38.665 36.8962 39.0417 36.1591C39.36 35.5359 39.6043 34.7873 39.766 33.9941C39.8736 33.4663 39.9447 32.3079 39.977 31.4101C39.9901 31.0432 39.9968 30.5684 39.9968 30.3493L40 10.6538C40 10.4356 39.9934 9.96059 39.9803 9.59329C39.9485 8.7013 39.8788 7.55159 39.7732 7.02903C39.6122 6.23135 39.3679 5.47805 39.0487 4.85159C38.6736 4.11548 38.1949 3.45588 37.6263 2.88619C37.0565 2.31541 36.3961 1.83483 35.659 1.45822C35.0359 1.13982 34.2872 0.895657 33.4941 0.733955C32.9662 0.626362 31.8079 0.555202 30.9102 0.523014C30.5432 0.509796 30.0683 0.503151 29.8493 0.503151L10.1538 0.5C9.9356 0.5 9.46057 0.506573 9.09334 0.519653Z" fill="url(#paint0_linear_244_2990)"/>
<path id="path54" fill-rule="evenodd" clip-rule="evenodd" d="M26.873 23.4775C26.4997 23.2916 24.6648 22.3929 24.3226 22.269C23.9805 22.1451 23.7317 22.0831 23.4829 22.4549C23.2341 22.8268 22.5188 23.6634 22.3011 23.9114C22.0834 24.1592 21.8657 24.1903 21.4925 24.0043C21.1192 23.8184 19.9166 23.4261 18.4911 22.1606C17.3815 21.1758 16.6325 19.9593 16.4147 19.5875C16.197 19.2156 16.3915 19.0146 16.5784 18.8294C16.7463 18.663 16.9516 18.3956 17.1382 18.1787C17.3248 17.9618 17.3871 17.8068 17.5115 17.559C17.6359 17.311 17.5737 17.0941 17.4803 16.9082C17.3871 16.7223 16.6407 14.894 16.3296 14.1503C16.0267 13.426 15.719 13.524 15.4899 13.5126C15.2724 13.5019 15.0234 13.4996 14.7745 13.4996C14.5257 13.4996 14.1214 13.5926 13.7792 13.9643C13.4371 14.3362 12.473 15.2349 12.473 17.0631C12.473 18.8914 13.8104 20.6577 13.997 20.9056C14.1836 21.1535 16.6288 24.9053 20.3728 26.5143C21.2633 26.897 21.9585 27.1255 22.5005 27.2968C23.3947 27.5794 24.2083 27.5395 24.8514 27.4439C25.5684 27.3373 27.0596 26.5453 27.3706 25.6776C27.6816 24.81 27.6816 24.0663 27.5883 23.9114C27.495 23.7564 27.2462 23.6634 26.873 23.4775ZM20.0631 32.7319H20.0581C17.8303 32.731 15.6453 32.1355 13.7391 31.0097L13.2857 30.7418L8.58682 31.9686L9.84106 27.4092L9.54582 26.9417C8.30306 24.9745 7.6467 22.7007 7.64763 20.3661C7.65036 13.5535 13.2199 8.01108 20.0681 8.01108C23.3842 8.01236 26.5014 9.29928 28.8454 11.6347C31.1894 13.9702 32.4796 17.0746 32.4783 20.3761C32.4755 27.1891 26.9061 32.7319 20.0631 32.7319ZM30.6291 9.85968C27.8089 7.04978 24.0584 5.50157 20.0626 5.5C11.8294 5.5 5.12857 12.1683 5.12527 20.3648C5.1242 22.9848 5.81198 25.5424 7.1191 27.7966L5 35.5L12.9185 33.4329C15.1002 34.6171 17.5566 35.2412 20.0566 35.2423H20.0627C28.2951 35.2423 34.9966 28.5731 35 20.3766C35.0015 16.4045 33.4493 12.6695 30.6291 9.85968Z" fill="white"/>
</g>
<defs>
<linearGradient id="paint0_linear_244_2990" x1="-4.29154e-05" y1="40.5" x2="-4.29154e-05" y2="0.499954" gradientUnits="userSpaceOnUse">
<stop stop-color="#25CF43"/>
<stop offset="1" stop-color="#61FD7D"/>
</linearGradient>
</defs>
</svg>
