<svg width="100" height="100" viewBox="0 0 100 100" fill="none" xmlns="http://www.w3.org/2000/svg">
<g id="Logo" clip-path="url(#clip0_402_81)">
<circle id="Ellipse 5" cx="92.5" cy="21.5" r="3.5" fill="#1E1E1E"/>
<g id="Vector">
<path d="M85.1641 59.9315V40.137C85.1641 36.5753 84.0749 33.7443 81.8965 31.6438C79.7655 29.4977 76.853 28.4247 73.1592 28.4247C69.4654 28.4247 66.553 29.4749 64.4219 31.5753C62.2909 33.6758 61.2254 36.5297 61.2254 40.137V59.9315C61.2254 63.4931 62.2909 66.3242 64.4219 68.4247C66.553 70.5251 69.4654 71.5753 73.1592 71.5753C76.853 71.5753 79.7655 70.5251 81.8965 68.4247C84.0749 66.3242 85.1641 63.4931 85.1641 59.9315ZM57.3895 59.726V40.274C57.3895 35.4795 58.7865 31.7352 61.5805 29.0411C64.4219 26.347 68.2815 25 73.1592 25C78.0369 25 81.8965 26.3699 84.7379 29.1096C87.5793 31.8037 89 35.5251 89 40.274V59.726C89 64.4749 87.5793 68.2192 84.7379 70.9589C81.8965 73.653 78.0369 75 73.1592 75C68.2815 75 64.4219 73.653 61.5805 70.9589C58.7865 68.2648 57.3895 64.5205 57.3895 59.726Z" fill="#1E1E1E"/>
<path d="M50 75C44.9465 75 41.0029 73.6347 38.1692 70.9041C35.3827 68.128 33.9895 64.3279 33.9895 59.5038C33.9895 57.3649 34.3437 55.3624 35.0521 53.4965C35.7605 51.6306 36.9649 49.3778 38.6651 46.7383L52.0544 26.1905H55.5966V27.5558L42.5615 47.3526C44.7812 45.5778 47.7566 44.6903 51.4877 44.6903C55.9744 44.6903 59.5166 46.0101 62.1142 48.6497C64.7117 51.2893 66.0105 54.9073 66.0105 59.5038C66.0105 64.2824 64.5701 68.0597 61.6891 70.8358C58.8554 73.6119 54.959 75 50 75ZM50 71.5867C53.8728 71.5867 56.8718 70.54 58.9971 68.4465C61.1224 66.3076 62.185 63.3949 62.185 59.7086C62.185 55.9768 61.146 53.0642 59.0679 50.9707C57.0371 48.8772 54.0617 47.8305 50.1417 47.8305C46.4106 47.8305 43.4116 48.9 41.1446 51.039C38.9249 53.1324 37.815 56.0223 37.815 59.7086C37.815 63.3949 38.854 66.3076 40.9321 68.4465C43.0574 70.54 46.08 71.5867 50 71.5867Z" fill="#1E1E1E"/>
<path d="M27.016 75C22.1925 75 18.329 73.6986 15.4255 71.0959C12.5688 68.4475 11.0937 64.8174 11 60.2055H14.6528C14.7464 63.7215 15.8938 66.5069 18.0948 68.5616C20.2958 70.5708 23.293 71.5753 27.0862 71.5753C30.739 71.5753 33.5957 70.5936 35.6562 68.6301C37.7636 66.621 38.8173 63.8813 38.8173 60.411C38.8173 57.4429 37.8572 55.0685 35.9372 53.2877C34.0171 51.4612 31.4181 50.5479 28.1399 50.5479H23.8549V47.3288H27.9994C30.9498 47.3288 33.2913 46.5068 35.024 44.863C36.8036 43.1735 37.6933 40.9132 37.6933 38.0822C37.6933 35.3425 36.7333 33.0594 34.8133 31.2329C32.94 29.3607 30.3644 28.4247 27.0862 28.4247C23.5271 28.4247 20.7641 29.4521 18.7973 31.5069C16.8304 33.516 15.8235 36.347 15.7767 40H12.1239C12.1708 35.2968 13.5288 31.621 16.1982 28.9726C18.8675 26.3242 22.4969 25 27.0862 25C31.5351 25 35.024 26.2329 37.5528 28.6986C40.1285 31.0731 41.4163 34.1096 41.4163 37.8082C41.4163 40.5936 40.7139 42.9224 39.309 44.7945C37.9509 46.621 36.0543 47.9452 33.6191 48.7671C36.2416 49.4521 38.3958 50.8676 40.0817 53.0137C41.7676 55.1142 42.6105 57.6484 42.6105 60.6164C42.6105 65.0913 41.229 68.6073 38.466 71.1644C35.703 73.7215 31.8864 75 27.016 75Z" fill="#1E1E1E"/>
</g>
<path id="Ellipse 4" d="M69.9553 30.0447C46.4605 6.54996 18.48 -3.56203 7.45896 7.45896C-3.56203 18.48 6.54996 46.4605 30.0447 69.9553C53.5395 93.45 81.52 103.562 92.541 92.541C103.562 81.52 93.45 53.5395 69.9553 30.0447Z" stroke="url(#paint0_angular_402_81)" stroke-width="5"/>
</g>
<defs>
<radialGradient id="paint0_angular_402_81" cx="0" cy="0" r="1" gradientUnits="userSpaceOnUse" gradientTransform="translate(50.0001 50) rotate(-64.8322) scale(25.4962 56.6714)">
<stop offset="0.32631" stop-color="#FF6600" stop-opacity="0.19"/>
<stop offset="0.371935" stop-color="#FF6600" stop-opacity="0"/>
<stop offset="0.693696" stop-color="#FF6600" stop-opacity="0"/>
<stop offset="0.749633" stop-color="#FF6600" stop-opacity="0.04"/>
<stop offset="0.798883" stop-color="#FF771D" stop-opacity="0.326098"/>
<stop offset="0.844525" stop-color="#FF8433" stop-opacity="0.51"/>
<stop offset="0.898221" stop-color="#FFA467"/>
<stop offset="0.986626" stop-color="#FFA467"/>
</radialGradient>
<clipPath id="clip0_402_81">
<rect width="100" height="100" fill="white"/>
</clipPath>
</defs>
</svg>
