<svg width="50" height="50" viewBox="0 0 50 50" fill="none" xmlns="http://www.w3.org/2000/svg">
<path d="M15 27.7238H35V29.5429C35 30.9902 34.4251 32.3782 33.4016 33.4016C32.3782 34.4251 30.9902 35 29.5429 35H20.4572C19.7405 35 19.0309 34.8588 18.3688 34.5846C17.7067 34.3104 17.1051 33.9084 16.5984 33.4016C15.575 32.3782 15 30.9902 15 29.5429V27.7238ZM15 27.7238L15 16.8191C14.9988 16.5798 15.045 16.3427 15.1359 16.1215C15.2269 15.9002 15.3608 15.6992 15.53 15.53C15.6992 15.3608 15.9002 15.2269 16.1215 15.1359C16.3427 15.045 16.5798 14.9988 16.8191 15H18.6381C19.1206 15 19.5832 15.1917 19.9244 15.5328C20.2655 15.8739 20.4572 16.3366 20.4572 16.8191V18.6381M17.7238 18.6381H23.181M15 24.0953H16.8191M24.0953 27.7238H29.5524V31.3619H24.0953V27.7238Z" stroke="#9A9AB1" stroke-width="1.5" stroke-linecap="round" stroke-linejoin="round"/>
<rect x="0.5" y="0.5" width="49" height="49" rx="9.5" stroke="#B0BCC2" stroke-opacity="0.3"/>
</svg>
