<svg width="50" height="50" viewBox="0 0 50 50" fill="none" xmlns="http://www.w3.org/2000/svg">
<path d="M32 34V32.4063M18 34V32.4063M34 25.5C34 21.4931 34 19.4896 32.8284 18.2448C31.6569 17 29.7712 17 26 17H24C20.2288 17 18.3431 17 17.1716 18.2448C16 19.4896 16 21.4931 16 25.5M31.5 25.5V23.9062C31.5 21.9028 31.5 20.901 30.9142 20.2787C30.3284 19.6562 29.3856 19.6562 27.5 19.6562H22.5C20.6144 19.6562 19.6716 19.6562 19.0858 20.2787C18.5 20.901 18.5 21.9028 18.5 23.9062V25.5M25 20.1875V25.5M15 28.6875C15 27.6974 15 27.2023 15.1522 26.8118C15.3552 26.2911 15.7446 25.8774 16.2346 25.6617C16.6022 25.5 17.0681 25.5 18 25.5H32C32.9319 25.5 33.3978 25.5 33.7654 25.6617C34.2554 25.8774 34.6448 26.2911 34.8478 26.8118C35 27.2023 35 27.6974 35 28.6875C35 29.6776 35 30.1727 34.8478 30.5632C34.6448 31.0839 34.2554 31.4976 33.7654 31.7133C33.3978 31.875 32.9319 31.875 32 31.875H18C17.0681 31.875 16.6022 31.875 16.2346 31.7133C15.7446 31.4976 15.3552 31.0839 15.1522 30.5632C15 30.1727 15 29.6776 15 28.6875Z" stroke="#9A9AB1" stroke-width="1.5" stroke-linecap="round" stroke-linejoin="round"/>
<rect x="0.5" y="0.5" width="49" height="49" rx="9.5" stroke="#B0BCC2" stroke-opacity="0.3"/>
</svg>
