<svg width="50" height="50" viewBox="0 0 50 50" fill="none" xmlns="http://www.w3.org/2000/svg">
<path d="M22.3068 32.8943V30.1342C22.3068 29.4322 22.9093 28.8617 23.6557 28.857H26.3899C27.1399 28.857 27.7478 29.4288 27.7478 30.1342V30.1342V32.9028C27.7477 33.4989 28.2535 33.986 28.8871 34H30.7099C32.527 34 34 32.6146 34 30.9056V30.9056V23.0541C33.9903 22.3817 33.6547 21.7504 33.0886 21.3397L26.8547 16.6168C25.7626 15.7944 24.2101 15.7944 23.118 16.6168L16.9114 21.3483C16.3432 21.7573 16.007 22.3897 16 23.0626V30.9056C16 32.6146 17.473 34 19.2901 34H21.1129C21.7622 34 22.2886 33.5049 22.2886 32.8943V32.8943" stroke="#9A9AB1" stroke-width="1.5" stroke-linecap="round" stroke-linejoin="round"/>
<rect x="0.5" y="0.5" width="49" height="49" rx="9.5" stroke="#B0BCC2" stroke-opacity="0.3"/>
</svg>
